<svg xmlns="http://www.w3.org/2000/svg" xmlns:xlink="http://www.w3.org/1999/xlink" width="1000" zoomAndPan="magnify" viewBox="0 0 750 1124.99995" height="1500" preserveAspectRatio="xMidYMid meet" version="1.0"><defs><clipPath id="8d801d6c09"><path d="M 73 194 L 728 194 L 728 944.835938 L 73 944.835938 Z M 73 194 " clip-rule="nonzero"/></clipPath><clipPath id="915a34cf89"><path d="M 90.726562 179.9375 L 726 179.9375 L 726 944.835938 L 90.726562 944.835938 Z M 90.726562 179.9375 " clip-rule="nonzero"/></clipPath></defs><g clip-path="url(#8d801d6c09)"><path fill="#d2e2eb" d="M 390.199219 917.402344 C 202.289062 855.859375 73.230469 757.171875 73.230469 559.511719 C 73.230469 361.855469 192.464844 201.621094 390.199219 201.621094 C 462.953125 201.621094 527.316406 213.488281 579.644531 238.320312 C 582.707031 213.902344 603.589844 194.949219 628.824219 194.949219 C 656.171875 194.949219 678.421875 217.1875 678.421875 244.519531 C 678.421875 263.601562 667.574219 280.1875 651.722656 288.464844 C 697.71875 334.695312 723.835938 400.179688 723.835938 486.824219 C 723.835938 684.484375 786.820312 1047.304688 390.199219 917.402344 " fill-opacity="1" fill-rule="nonzero"/></g><path fill="#f9d291" d="M 693.601562 379.464844 L 650.140625 379.464844 L 650.140625 336.027344 L 693.601562 336.027344 Z M 708.984375 506.105469 L 622.113281 506.105469 C 629.257812 499.886719 642.265625 494.839844 651.167969 494.839844 C 657.164062 494.839844 659.75 497.128906 658.628906 500.527344 C 668.851562 494.453125 682.1875 490.109375 692.019531 490.109375 C 698.492188 490.109375 702.152344 492 702.847656 495.015625 C 703.875 494.914062 704.871094 494.839844 705.808594 494.839844 C 714.707031 494.839844 716.132812 499.886719 708.984375 506.105469 Z M 651.679688 550.164062 C 650.714844 551.929688 649.445312 553.796875 648.304688 554.027344 C 646.058594 554.472656 646.058594 554.472656 646.058594 554.472656 C 646.058594 554.472656 653.792969 563.878906 646.625 571.042969 C 639.453125 578.207031 607.535156 598.363281 607.535156 598.363281 C 607.535156 598.363281 574.222656 585.714844 583.941406 566.742188 C 583.941406 566.742188 603.054688 527.601562 607.082031 527.15625 C 611.121094 526.710938 630.382812 527.15625 633.964844 530.738281 C 636.628906 533.402344 645.949219 541 650.582031 544.746094 C 652.203125 546.050781 652.667969 548.328125 651.679688 550.164062 Z M 552.847656 517.898438 C 557.433594 517.898438 559.410156 519.65625 558.550781 522.25 C 566.375 517.605469 576.566406 514.292969 584.082031 514.292969 C 589.027344 514.292969 591.835938 515.726562 592.363281 518.039062 C 593.144531 517.953125 593.90625 517.898438 594.625 517.898438 C 601.433594 517.898438 602.523438 521.757812 597.054688 526.511719 L 530.636719 526.511719 C 536.097656 521.757812 546.046875 517.898438 552.847656 517.898438 Z M 723.835938 486.824219 C 723.835938 482.480469 723.753906 478.210938 723.621094 473.972656 L 359.359375 473.972656 L 200.101562 645.050781 L 628.917969 645.050781 L 724.25 517.710938 C 724 507.0625 723.835938 496.734375 723.835938 486.824219 " fill-opacity="1" fill-rule="nonzero"/><path fill="#4a7296" d="M 698.976562 336.027344 L 698.976562 379.464844 L 742.4375 379.464844 L 742.4375 336.027344 Z M 622.085938 608.996094 C 622.085938 608.996094 499.183594 742.464844 435.175781 726.011719 C 410.347656 719.628906 337.203125 624.050781 337.203125 624.050781 C 318.398438 654.066406 301.421875 710.195312 296.488281 745.261719 L 315.230469 779.222656 C 318.503906 785.160156 315.007812 792.519531 308.34375 793.820312 C 261.300781 803.023438 221.175781 826.542969 170.925781 799.355469 C 119.066406 750.769531 96.90625 696.378906 88.371094 668.65625 L 95.097656 632.710938 C 95.097656 632.710938 59.742188 659.523438 40.230469 657.089844 C 20.726562 654.648438 0.0117188 638.800781 0 613.214844 C -0.0117188 587.628906 128.015625 421.875 163.371094 406.039062 C 171.257812 402.503906 182.3125 399.820312 195.136719 398.003906 L 225.292969 347.234375 C 258.855469 370.03125 285.90625 374.859375 285.90625 374.859375 L 286.515625 388.753906 C 286.515625 388.753906 291.125 410.042969 291.125 410.042969 C 297.289062 411.859375 338.003906 424.414062 342.65625 426.757812 C 381.398438 446.253906 473.042969 639.417969 473.042969 639.417969 L 574.839844 566.5625 C 617.519531 563.839844 622.085938 608.996094 622.085938 608.996094 " fill-opacity="1" fill-rule="nonzero"/><g clip-path="url(#915a34cf89)"><path fill="#f89345" d="M 628.824219 255.867188 C 634.523438 255.867188 639.15625 251.234375 639.15625 245.546875 L 639.15625 242.550781 C 639.15625 241.617188 638.40625 240.871094 637.476562 240.871094 C 636.550781 240.871094 635.796875 241.617188 635.796875 242.550781 L 635.796875 245.546875 C 635.796875 249.386719 632.671875 252.507812 628.824219 252.507812 C 624.988281 252.507812 621.863281 249.386719 621.863281 245.546875 L 621.863281 242.550781 C 621.863281 241.617188 621.109375 240.871094 620.183594 240.871094 C 619.25 240.871094 618.503906 241.617188 618.503906 242.550781 L 618.503906 245.546875 C 618.503906 251.234375 623.136719 255.867188 628.824219 255.867188 Z M 582.597656 244.519531 C 582.597656 270.042969 603.296875 290.730469 628.824219 290.730469 C 654.363281 290.730469 675.0625 270.042969 675.0625 244.519531 C 675.0625 219 654.363281 198.308594 628.824219 198.308594 C 603.296875 198.308594 582.597656 219 582.597656 244.519531 Z M 575.304688 244.519531 C 575.304688 214.972656 599.265625 191.019531 628.824219 191.019531 C 658.390625 191.019531 682.351562 214.972656 682.351562 244.519531 C 682.351562 274.066406 658.390625 298.023438 628.824219 298.023438 C 599.265625 298.023438 575.304688 274.066406 575.304688 244.519531 Z M 574.734375 297.117188 L 564.300781 297.117188 L 564.300781 307.550781 L 574.734375 307.550781 Z M 574.734375 179.945312 L 564.300781 179.945312 L 564.300781 190.371094 L 574.734375 190.371094 Z M 692.789062 179.945312 L 682.351562 179.945312 L 682.351562 190.371094 L 692.789062 190.371094 Z M 692.789062 298.667969 L 682.351562 298.667969 L 682.351562 309.097656 L 692.789062 309.097656 Z M 601.308594 379.464844 L 644.765625 379.464844 L 644.765625 336.027344 L 601.308594 336.027344 Z M 461.078125 332.644531 L 477.890625 327.875 L 481.132812 320.222656 L 485.695312 315.664062 L 476.75 306.722656 L 472.195312 311.277344 L 466.78125 313.570312 C 467.0625 312.640625 467.1875 311.675781 466.976562 310.660156 C 466.125 306.507812 462.113281 304.847656 461.949219 304.78125 C 461.648438 304.65625 461.328125 304.589844 461 304.589844 C 459.96875 304.589844 459.054688 305.207031 458.667969 306.160156 C 458.144531 307.4375 458.753906 308.914062 460.015625 309.433594 C 460.027344 309.4375 461.734375 310.207031 462.042969 311.675781 C 462.121094 312.140625 461.289062 313.605469 460.789062 314.484375 C 459.648438 316.503906 458.230469 319.011719 458.484375 321.949219 C 458.683594 324.179688 459.320312 326.300781 460.328125 328.089844 L 460.566406 328.503906 L 459.765625 331.332031 L 457.414062 333.679688 L 459.246094 333.160156 L 458.722656 335 Z M 465.972656 397.800781 L 464.589844 396.414062 L 464.472656 397.917969 Z M 468.71875 402.628906 L 458.957031 403.429688 L 459.757812 393.671875 L 471.617188 381.824219 L 471.511719 381.71875 L 475.796875 377.441406 L 484.953125 386.59375 L 480.675781 390.871094 L 480.578125 390.773438 Z M 465.4375 358.195312 L 464.453125 357.09375 L 464.453125 359.289062 Z M 469.628906 364.753906 L 469.628906 361.0625 L 459.410156 372.53125 L 459.410156 343.855469 L 469.628906 355.328125 L 469.628906 346.589844 L 474.667969 346.589844 L 474.667969 355.328125 L 484.882812 343.855469 L 484.882812 372.53125 L 474.667969 361.0625 L 474.667969 369.792969 L 469.628906 369.792969 Z M 469.511719 277.8125 L 476.632812 279.089844 L 466.136719 266.96875 L 464.378906 282.902344 Z M 471.203125 283.230469 L 457.804688 296.523438 L 462.398438 254.9375 L 489.777344 286.589844 Z M 428.203125 355.40625 L 435.0625 362.375 L 441.304688 356.234375 L 434.453125 349.265625 Z M 422.148438 358.042969 L 422.949219 357.25 L 422.980469 357.222656 C 422.074219 356.003906 422.171875 354.277344 423.28125 353.183594 L 432.300781 344.3125 C 432.882812 343.742188 433.652344 343.429688 434.472656 343.429688 C 435.304688 343.429688 436.09375 343.757812 436.675781 344.351562 L 446.257812 354.089844 C 446.84375 354.679688 447.15625 355.453125 447.152344 356.28125 C 447.144531 357.105469 446.816406 357.878906 446.226562 358.464844 L 437.207031 367.328125 C 436.625 367.90625 435.855469 368.21875 435.035156 368.21875 C 434.347656 368.21875 433.699219 367.984375 433.164062 367.570312 L 433.132812 367.597656 L 432.332031 368.390625 C 431.40625 369.296875 430.1875 369.792969 428.894531 369.792969 C 427.566406 369.792969 426.328125 369.277344 425.394531 368.332031 L 422.09375 364.980469 C 420.199219 363.050781 420.21875 359.941406 422.148438 358.042969 Z M 425.382812 398.152344 L 442.453125 398.152344 L 442.453125 383.347656 L 425.382812 383.347656 Z M 420.34375 378.308594 L 447.492188 378.308594 L 447.492188 403.191406 L 420.34375 403.191406 Z M 422.085938 332.65625 L 439.15625 327.816406 L 442.445312 320.054688 L 447.066406 315.433594 L 441.351562 309.726562 L 438.015625 306.394531 L 433.402344 311.007812 L 425.636719 314.300781 L 420.789062 331.363281 L 418.472656 333.6875 L 420.277344 333.167969 L 419.765625 334.976562 Z M 420.671875 294.253906 L 432.6875 282.324219 L 449.351562 285.335938 L 424.792969 256.945312 Z M 369.125 281 C 369.878906 276.75 370.339844 272.457031 370.417969 268.167969 C 370.496094 262.839844 370.035156 257.5 368.769531 252.339844 C 367.582031 247.167969 365.585938 242.191406 362.917969 237.609375 C 361.65625 235.457031 360.226562 233.40625 358.65625 231.464844 C 365.921875 246.859375 369.5 263.976562 369.125 281 Z M 271.914062 305.359375 C 271.863281 301.476562 271.539062 297.597656 270.96875 293.746094 C 269.492188 300.515625 273.359375 308.1875 270.386719 314.53125 C 266.460938 322.902344 254.023438 322.808594 247.703125 329.554688 C 247.394531 329.882812 247.132812 330.242188 246.863281 330.589844 C 248.328125 329.0625 250.046875 327.773438 251.929688 326.804688 C 254.511719 325.445312 257.273438 324.671875 259.90625 323.746094 C 262.523438 322.835938 265.082031 321.753906 267.175781 320.09375 C 269.308594 318.484375 270.71875 316.195312 271.304688 313.566406 C 271.933594 310.949219 271.902344 308.148438 271.914062 305.359375 Z M 202.808594 404.957031 C 202.914062 408.828125 204.65625 416.082031 213.453125 426.757812 C 227.265625 443.511719 223.414062 463.921875 213.453125 470.324219 C 212.960938 470.640625 212.496094 470.90625 212.027344 471.171875 C 218.789062 470.679688 225.195312 466.648438 228.152344 460.613281 C 229.914062 457.175781 230.679688 453.242188 230.214844 449.421875 C 229.761719 445.589844 228.207031 441.929688 226.132812 438.625 C 222.03125 431.90625 215.800781 426.71875 210.664062 420.484375 C 208.089844 417.375 205.785156 413.945312 204.269531 410.144531 C 203.601562 408.488281 203.109375 406.734375 202.808594 404.957031 Z M 184.996094 470.644531 C 184.121094 470.535156 183.222656 470.421875 182.265625 470.324219 C 164.894531 468.492188 163.378906 489.355469 142.351562 492.097656 C 140.503906 492.332031 138.53125 492.457031 136.488281 492.523438 C 138.726562 494.09375 141.089844 495.464844 143.617188 496.367188 C 146.628906 497.4375 149.84375 498.007812 152.976562 497.628906 C 156.117188 497.300781 159.011719 495.882812 161.367188 493.757812 C 166.230469 489.578125 168.863281 483.292969 173.433594 478.289062 C 176.59375 474.832031 180.625 472.21875 184.996094 470.644531 Z M 131.535156 397.570312 C 135.125 395.222656 138.261719 392.375 140.203125 388.273438 C 145.75 376.582031 141.015625 374.6875 153.304688 357.777344 C 149.246094 361.691406 145.269531 365.65625 142.179688 370.28125 C 140.152344 373.21875 138.574219 376.433594 137.609375 379.851562 C 136.648438 383.277344 136.195312 386.929688 135.003906 390.472656 C 134.171875 392.992188 132.992188 395.371094 131.535156 397.570312 Z M 188.449219 271.84375 C 189.9375 263.167969 191.40625 253.742188 192.96875 243.449219 C 192.15625 245.796875 191.300781 248.140625 190.417969 250.457031 C 188.53125 255.257812 186.859375 260.191406 187.148438 265.261719 C 187.246094 267.5 187.699219 269.714844 188.449219 271.84375 Z M 373.257812 349.507812 C 373.730469 352.828125 373.648438 356.246094 373.175781 359.578125 C 372.636719 362.890625 371.71875 366.066406 371.0625 369.25 C 369.703125 375.585938 370.445312 382.191406 371.191406 388.707031 C 371.210938 388.882812 371.085938 389.042969 370.910156 389.0625 C 370.738281 389.082031 370.582031 388.964844 370.554688 388.800781 C 370.015625 385.550781 369.472656 382.292969 369.210938 378.972656 C 368.972656 375.664062 369.058594 372.28125 369.664062 368.988281 C 370.226562 365.695312 371.152344 362.53125 371.617188 359.335938 C 372.03125 356.15625 372.085938 352.925781 371.597656 349.726562 C 370.777344 343.296875 368.574219 337.085938 366.742188 330.746094 C 365.832031 327.578125 364.96875 324.363281 364.453125 321.070312 C 364.128906 318.964844 363.945312 316.839844 363.925781 314.699219 C 363.390625 317.992188 363.066406 321.308594 363.210938 324.644531 C 363.625 334.238281 367.851562 343.414062 367.785156 353.011719 C 367.734375 360.457031 365.09375 367.675781 364.839844 375.113281 C 364.5625 383.132812 367.070312 391.121094 366.144531 399.09375 C 364.976562 409.203125 358.460938 417.914062 356.003906 427.800781 C 355.289062 430.679688 354.941406 433.59375 354.832031 436.527344 C 350.386719 431.941406 346.285156 428.582031 342.65625 426.757812 C 338.003906 424.414062 297.289062 411.859375 291.125 410.042969 C 291.125 410.042969 286.515625 388.753906 286.515625 388.753906 L 285.90625 374.859375 C 285.90625 374.859375 285.78125 374.839844 285.558594 374.792969 C 285.59375 373.882812 285.605469 373.113281 285.585938 372.570312 C 308.34375 377.605469 331.058594 375.644531 341.316406 364.316406 C 355.691406 348.425781 351.339844 249.996094 351.339844 249.996094 C 350.972656 248.414062 350.527344 246.898438 350.035156 245.421875 C 350.078125 246.058594 350.085938 246.703125 350.035156 247.347656 C 349.855469 249.445312 349.179688 251.503906 347.980469 253.210938 C 347.855469 253.382812 347.617188 253.421875 347.449219 253.296875 C 347.296875 253.191406 347.242188 252.996094 347.316406 252.832031 C 348.097656 251.050781 348.523438 249.15625 348.542969 247.265625 C 348.558594 245.382812 348.214844 243.5 347.453125 241.800781 C 346.746094 240.195312 345.6875 238.757812 344.390625 237.550781 C 341.375 236.128906 337.601562 236.101562 333.738281 236.785156 C 334.308594 236.847656 334.886719 236.941406 335.449219 237.066406 C 337.8125 237.648438 340.144531 238.816406 341.769531 240.71875 C 343.386719 242.570312 344.382812 245.054688 344.113281 247.488281 C 344.09375 247.667969 343.9375 247.792969 343.757812 247.773438 C 343.601562 247.757812 343.484375 247.628906 343.46875 247.476562 C 343.320312 245.253906 342.25 243.207031 340.726562 241.683594 C 339.203125 240.15625 337.210938 239.144531 335.070312 238.699219 C 332.945312 238.175781 330.699219 238.195312 328.480469 238.496094 C 327.609375 238.613281 326.734375 238.785156 325.863281 238.980469 C 323.816406 239.730469 321.886719 240.554688 320.191406 241.335938 C 318.308594 237.964844 314.355469 236.234375 310.457031 236.292969 C 310.480469 236.296875 310.492188 236.304688 310.511719 236.3125 C 311.6875 236.824219 312.796875 237.5 313.734375 238.378906 C 314.671875 239.238281 315.480469 240.253906 316.003906 241.402344 C 316.097656 241.597656 316.011719 241.828125 315.8125 241.914062 C 315.664062 241.984375 315.484375 241.941406 315.375 241.820312 C 314.5625 240.96875 313.71875 240.1875 312.789062 239.527344 C 311.855469 238.871094 310.886719 238.292969 309.84375 237.847656 C 308.890625 237.421875 307.894531 237.125 306.867188 236.890625 C 305.351562 237.378906 303.949219 238.128906 302.667969 239.074219 C 302.945312 239.027344 303.214844 238.976562 303.496094 238.957031 C 304.492188 238.871094 305.496094 238.96875 306.480469 239.171875 C 307.460938 239.394531 308.417969 239.730469 309.289062 240.222656 C 310.164062 240.699219 310.984375 241.289062 311.640625 242.046875 C 311.777344 242.203125 311.765625 242.453125 311.601562 242.589844 C 311.484375 242.695312 311.3125 242.714844 311.179688 242.648438 C 310.328125 242.253906 309.515625 241.875 308.667969 241.574219 C 307.828125 241.269531 306.980469 241.003906 306.113281 240.8125 C 305.246094 240.59375 304.367188 240.476562 303.476562 240.371094 C 302.742188 240.292969 301.984375 240.273438 301.21875 240.253906 C 299.320312 241.984375 297.753906 244.125 296.570312 246.40625 C 295.914062 247.679688 295.371094 249 294.890625 250.335938 C 294.832031 253.722656 295.277344 257.140625 295.679688 260.589844 C 296.078125 264.71875 296.472656 269.046875 295.382812 273.246094 C 294.847656 275.320312 294.023438 277.339844 292.816406 279.128906 C 291.589844 280.894531 289.964844 282.425781 288.019531 283.347656 C 287.863281 283.425781 287.671875 283.363281 287.59375 283.199219 C 287.523438 283.046875 287.582031 282.871094 287.71875 282.785156 C 291.222656 280.671875 293.183594 276.820312 294.003906 272.925781 C 294.851562 268.980469 294.503906 264.875 294.011719 260.78125 C 293.828125 258.925781 293.597656 257.046875 293.449219 255.152344 C 293 256.9375 292.628906 258.734375 292.246094 260.527344 C 295.234375 266.128906 289.765625 275.5625 284.679688 279.359375 C 279.804688 283 273.863281 286.164062 271.605469 291.71875 C 271.992188 293.414062 272.339844 295.117188 272.617188 296.84375 C 273.03125 299.652344 273.285156 302.484375 273.398438 305.324219 C 273.496094 308.148438 273.507812 311.039062 272.867188 313.925781 C 272.539062 315.363281 272.027344 316.792969 271.226562 318.085938 C 270.433594 319.378906 269.382812 320.492188 268.207031 321.410156 C 263.402344 325.085938 257.457031 325.707031 252.5625 328.070312 C 248.792969 329.839844 245.703125 333.003906 243.871094 336.808594 C 242.183594 343.164062 243.003906 350.722656 241.535156 357.449219 C 241.554688 357.828125 241.59375 358.203125 241.605469 358.582031 C 241.679688 361.882812 241.167969 365.1875 240.175781 368.34375 C 239.121094 371.480469 237.597656 374.457031 235.601562 377.074219 C 233.605469 379.699219 231.199219 381.996094 228.449219 383.753906 C 228.296875 383.851562 228.101562 383.808594 228.003906 383.664062 C 227.917969 383.523438 227.941406 383.339844 228.066406 383.242188 C 230.507812 381.1875 232.675781 378.847656 234.453125 376.25 C 236.21875 373.644531 237.664062 370.824219 238.582031 367.832031 C 239.152344 366.121094 239.535156 364.355469 239.78125 362.570312 C 235.699219 370.835938 226.382812 374.984375 218.339844 379.628906 C 213.308594 382.535156 208.226562 386.632812 205.375 391.527344 C 206.851562 390.5 208.453125 389.664062 210.097656 389.023438 C 213.675781 387.636719 217.417969 387.007812 221.105469 386.488281 C 221.316406 386.464844 221.503906 386.609375 221.53125 386.816406 C 221.558594 387.015625 221.433594 387.191406 221.25 387.238281 C 217.632812 388.144531 213.996094 388.945312 210.664062 390.394531 C 208.082031 391.515625 205.640625 393.03125 203.777344 395.042969 C 203.484375 395.949219 203.285156 396.882812 203.167969 397.828125 C 203.179688 397.828125 203.195312 397.820312 203.207031 397.820312 C 203.410156 397.851562 203.542969 398.042969 203.523438 398.246094 C 202.996094 402.144531 203.8125 406.113281 205.40625 409.675781 C 206.949219 413.289062 209.21875 416.542969 211.796875 419.527344 C 216.917969 425.542969 223.203125 430.757812 227.554688 437.746094 C 229.695312 441.210938 231.328125 445.105469 231.777344 449.246094 C 232.234375 453.378906 231.402344 457.648438 229.40625 461.277344 C 227.449219 464.917969 224.375 467.960938 220.679688 469.785156 C 217.542969 471.335938 214.035156 472.074219 210.578125 471.929688 C 203.488281 475.34375 198.949219 472.746094 187.175781 470.960938 C 182.3125 472.585938 177.894531 475.472656 174.535156 479.277344 C 170.28125 484.085938 167.65625 490.429688 162.472656 495.015625 C 159.917969 497.292969 156.605469 498.882812 153.152344 499.191406 C 149.714844 499.558594 146.261719 498.945312 143.117188 497.695312 C 139.980469 496.46875 137.183594 494.625 134.605469 492.578125 C 127.128906 492.640625 118.75 491.75 111.023438 490.570312 C 92.496094 487.722656 84.203125 464.828125 97.386719 451.507812 C 98.199219 450.695312 99.0625 449.953125 99.972656 449.296875 C 112.777344 440.160156 101.804688 427.359375 108.203125 414.566406 C 112.210938 406.550781 121.238281 403.554688 129 399.125 C 131.054688 396.371094 132.648438 393.292969 133.652344 390.039062 C 134.675781 386.632812 135.136719 383.027344 136.09375 379.429688 C 137.074219 375.828125 138.707031 372.410156 140.789062 369.339844 C 144.980469 363.1875 150.519531 358.265625 155.785156 353.300781 C 157.164062 352.003906 158.527344 350.691406 159.847656 349.34375 C 160.003906 349.148438 160.15625 348.957031 160.320312 348.753906 C 175.519531 330.269531 182.121094 307.949219 188.085938 273.894531 C 186.789062 271.238281 185.960938 268.332031 185.730469 265.355469 C 185.25 259.929688 187.042969 254.707031 188.847656 249.859375 C 190.757812 245.015625 192.457031 240.136719 194.046875 235.191406 C 194.15625 234.863281 194.257812 234.527344 194.359375 234.191406 C 194.617188 232.488281 194.871094 230.769531 195.140625 229.023438 C 204.355469 167.78125 279.644531 183.75 279.644531 183.75 C 304.222656 183.015625 325.179688 197.144531 345.007812 211.683594 C 350.199219 215.488281 354.074219 221.058594 356.539062 227.316406 C 356.558594 227.332031 356.582031 227.34375 356.609375 227.355469 C 356.695312 227.527344 356.773438 227.699219 356.859375 227.863281 C 357.691406 228.640625 358.511719 229.4375 359.285156 230.28125 C 361.105469 232.316406 362.738281 234.519531 364.191406 236.84375 C 367.070312 241.492188 369.117188 246.644531 370.40625 251.957031 C 371.613281 257.292969 372.089844 262.777344 371.835938 268.214844 C 371.59375 273.652344 370.648438 279.039062 369.15625 284.234375 C 369.132812 284.332031 369.058594 284.390625 368.972656 284.429688 C 368.703125 289.484375 368.101562 294.515625 367.125 299.480469 C 366.375 303.277344 365.429688 307.0625 364.648438 310.863281 C 364.746094 310.933594 364.820312 311.039062 364.8125 311.171875 C 364.667969 314.425781 365.015625 317.671875 365.660156 320.859375 C 366.257812 324.054688 367.175781 327.199219 368.167969 330.320312 C 370.117188 336.574219 372.339844 342.851562 373.257812 349.507812 Z M 642.464844 574.605469 C 642.628906 574.84375 642.902344 574.992188 643.21875 574.960938 C 643.390625 574.941406 646.085938 574.664062 648.683594 573.539062 C 650.070312 572.941406 651.414062 572.105469 652.347656 570.953125 C 652.636719 570.585938 652.578125 570.058594 652.214844 569.773438 C 651.855469 569.476562 651.324219 569.535156 651.035156 569.902344 C 649.460938 571.863281 646.164062 572.742188 644.339844 573.089844 C 643.769531 573.570312 643.140625 574.074219 642.464844 574.605469 Z M 609.773438 479.96875 C 609.308594 478.890625 608.054688 478.394531 606.976562 478.859375 C 605.894531 479.324219 605.402344 480.578125 605.867188 481.652344 L 606.433594 482.960938 L 608.003906 486.585938 C 608.46875 487.667969 609.722656 488.160156 610.804688 487.695312 C 611.878906 487.230469 612.371094 485.976562 611.90625 484.902344 L 610.339844 481.265625 Z M 628.542969 647.851562 L 652.195312 616.722656 L 614.722656 616.722656 C 607.832031 623.808594 596.53125 635.105469 582.582031 647.851562 Z M 473.042969 639.417969 L 504.746094 616.722656 L 461.988281 616.722656 C 468.886719 630.664062 473.042969 639.417969 473.042969 639.417969 Z M 324.859375 647.851562 L 356.089844 647.851562 C 344.875 634.082031 337.203125 624.050781 337.203125 624.050781 C 332.957031 630.835938 328.800781 638.949219 324.859375 647.851562 Z M 663.929688 802.53125 L 710.46875 802.53125 L 710.46875 800.851562 L 665.609375 800.851562 L 665.609375 796.3125 L 663.929688 796.3125 Z M 663.929688 792.453125 L 710.46875 792.453125 L 710.46875 790.777344 L 665.609375 790.777344 L 665.609375 786.234375 L 663.929688 786.234375 Z M 663.929688 782.378906 L 710.46875 782.378906 L 710.46875 780.699219 L 665.609375 780.699219 L 665.609375 776.160156 L 663.929688 776.160156 Z M 657.261719 754.214844 L 721.597656 754.214844 C 718.960938 773.953125 715.261719 793.007812 710.132812 810.929688 L 665.609375 810.929688 L 665.609375 806.390625 L 663.929688 806.390625 L 663.929688 812.609375 L 709.640625 812.609375 C 699.042969 848.894531 682.558594 880.460938 657.261719 903.644531 C 654.375 906.289062 651.371094 908.816406 648.253906 911.234375 L 648.253906 754.214844 Z M 567.5625 792.285156 L 633.519531 792.285156 L 633.519531 776.160156 L 567.5625 776.160156 Z M 609.886719 844.011719 C 609.886719 838.847656 605.699219 834.671875 600.539062 834.671875 C 595.375 834.671875 591.195312 838.847656 591.195312 844.011719 C 591.195312 849.167969 595.375 853.355469 600.539062 853.355469 C 605.699219 853.355469 609.886719 849.167969 609.886719 844.011719 Z M 638.015625 754.214844 L 646.570312 754.214844 L 646.570312 912.535156 C 644.820312 913.851562 643.023438 915.125 641.195312 916.371094 L 641.195312 765.917969 L 565.585938 765.917969 L 565.585938 767.597656 L 639.515625 767.597656 L 639.515625 913.035156 L 565.585938 913.035156 L 565.585938 914.710938 L 639.515625 914.710938 L 639.515625 917.527344 C 639.058594 917.828125 638.589844 918.109375 638.132812 918.414062 L 565.585938 918.414062 L 565.585938 920.09375 L 635.492188 920.09375 C 614.113281 933.246094 587.90625 941.6875 555.832031 944.109375 L 555.832031 754.214844 Z M 638.585938 660.167969 L 725.019531 544.710938 C 725.3125 553.882812 725.636719 563.230469 725.945312 572.71875 L 702.863281 603.269531 L 687.945312 623.015625 L 659.882812 660.167969 L 638.585938 660.167969 " fill-opacity="1" fill-rule="nonzero"/></g><path fill="#393a3f" d="M 597.351562 189.53125 L 593.988281 189.53125 L 593.988281 191.210938 L 597.351562 191.210938 Z M 604.070312 189.53125 L 600.710938 189.53125 L 600.710938 191.210938 L 604.070312 191.210938 Z M 594.988281 297.828125 L 591.628906 297.828125 L 591.628906 299.507812 L 594.988281 299.507812 Z M 601.707031 297.828125 L 598.347656 297.828125 L 598.347656 299.507812 L 601.707031 299.507812 Z M 590.628906 189.53125 L 587.269531 189.53125 L 587.269531 191.210938 L 590.628906 191.210938 Z M 583.910156 189.53125 L 580.550781 189.53125 L 580.550781 191.210938 L 583.910156 191.210938 Z M 588.265625 297.828125 L 584.90625 297.828125 L 584.90625 299.507812 L 588.265625 299.507812 Z M 605.066406 299.507812 L 608.429688 299.507812 L 608.429688 297.828125 L 605.066406 297.828125 Z M 630.953125 189.53125 L 627.59375 189.53125 L 627.59375 191.210938 L 630.953125 191.210938 Z M 624.230469 189.53125 L 620.871094 189.53125 L 620.871094 191.210938 L 624.230469 191.210938 Z M 628.589844 297.828125 L 625.230469 297.828125 L 625.230469 299.507812 L 628.589844 299.507812 Z M 610.792969 189.53125 L 607.429688 189.53125 L 607.429688 191.210938 L 610.792969 191.210938 Z M 617.511719 189.53125 L 614.152344 189.53125 L 614.152344 191.210938 L 617.511719 191.210938 Z M 611.789062 299.507812 L 615.148438 299.507812 L 615.148438 297.828125 L 611.789062 297.828125 Z M 581.546875 297.828125 L 578.1875 297.828125 L 578.1875 299.507812 L 581.546875 299.507812 Z M 621.871094 297.828125 L 618.507812 297.828125 L 618.507812 299.507812 L 621.871094 299.507812 Z M 575.574219 275.253906 L 573.894531 275.253906 L 573.894531 278.613281 L 575.574219 278.613281 Z M 575.574219 268.535156 L 573.894531 268.535156 L 573.894531 271.894531 L 575.574219 271.894531 Z M 575.574219 261.816406 L 573.894531 261.816406 L 573.894531 265.175781 L 575.574219 265.175781 Z M 575.574219 248.382812 L 573.894531 248.382812 L 573.894531 251.742188 L 575.574219 251.742188 Z M 574.78125 298.667969 L 575.574219 298.667969 L 575.574219 295.40625 L 573.894531 295.40625 L 573.894531 299.507812 L 574.828125 299.507812 Z M 575.574219 288.6875 L 573.894531 288.6875 L 573.894531 292.046875 L 575.574219 292.046875 Z M 575.574219 281.972656 L 573.894531 281.972656 L 573.894531 285.328125 L 575.574219 285.328125 Z M 575.574219 228.230469 L 573.894531 228.230469 L 573.894531 231.589844 L 575.574219 231.589844 Z M 575.574219 208.074219 L 573.894531 208.074219 L 573.894531 211.433594 L 575.574219 211.433594 Z M 575.574219 201.359375 L 573.894531 201.359375 L 573.894531 204.71875 L 575.574219 204.71875 Z M 575.574219 194.640625 L 573.894531 194.640625 L 573.894531 198 L 575.574219 198 Z M 575.574219 241.664062 L 573.894531 241.664062 L 573.894531 245.023438 L 575.574219 245.023438 Z M 575.574219 214.792969 L 573.894531 214.792969 L 573.894531 218.152344 L 575.574219 218.152344 Z M 575.574219 234.945312 L 573.894531 234.945312 L 573.894531 238.304688 L 575.574219 238.304688 Z M 577.1875 191.210938 L 577.1875 189.53125 L 573.894531 189.53125 L 573.894531 191.28125 L 575.574219 191.28125 Z M 575.574219 221.511719 L 573.894531 221.511719 L 573.894531 224.871094 L 575.574219 224.871094 Z M 575.574219 255.101562 L 573.894531 255.101562 L 573.894531 258.460938 L 575.574219 258.460938 Z M 683.191406 236.398438 L 681.511719 236.398438 L 681.511719 239.753906 L 683.191406 239.753906 Z M 683.191406 243.113281 L 681.511719 243.113281 L 681.511719 246.472656 L 683.191406 246.472656 Z M 683.191406 229.679688 L 681.511719 229.679688 L 681.511719 233.039062 L 683.191406 233.039062 Z M 683.191406 209.527344 L 681.511719 209.527344 L 681.511719 212.882812 L 683.191406 212.882812 Z M 683.191406 249.832031 L 681.511719 249.832031 L 681.511719 253.191406 L 683.191406 253.191406 Z M 683.191406 202.808594 L 681.511719 202.808594 L 681.511719 206.167969 L 683.191406 206.167969 Z M 683.191406 222.960938 L 681.511719 222.960938 L 681.511719 226.320312 L 683.191406 226.320312 Z M 683.191406 216.242188 L 681.511719 216.242188 L 681.511719 219.601562 L 683.191406 219.601562 Z M 683.191406 283.421875 L 681.511719 283.421875 L 681.511719 286.78125 L 683.191406 286.78125 Z M 681.511719 293.496094 L 683.191406 293.496094 L 683.191406 290.140625 L 681.511719 290.140625 Z M 681.511719 192.730469 L 683.191406 192.730469 L 683.191406 189.53125 L 681.355469 189.53125 L 681.355469 191.210938 L 681.511719 191.210938 Z M 683.191406 263.269531 L 681.511719 263.269531 L 681.511719 266.625 L 683.191406 266.625 Z M 635.308594 297.828125 L 631.949219 297.828125 L 631.949219 299.507812 L 635.308594 299.507812 Z M 683.191406 256.550781 L 681.511719 256.550781 L 681.511719 259.910156 L 683.191406 259.910156 Z M 683.191406 276.703125 L 681.511719 276.703125 L 681.511719 280.0625 L 683.191406 280.0625 Z M 683.191406 269.984375 L 681.511719 269.984375 L 681.511719 273.34375 L 683.191406 273.34375 Z M 677.996094 189.53125 L 674.636719 189.53125 L 674.636719 191.210938 L 677.996094 191.210938 Z M 651.113281 189.53125 L 647.753906 189.53125 L 647.753906 191.210938 L 651.113281 191.210938 Z M 657.835938 189.53125 L 654.472656 189.53125 L 654.472656 191.210938 L 657.835938 191.210938 Z M 683.191406 196.089844 L 681.511719 196.089844 L 681.511719 199.449219 L 683.191406 199.449219 Z M 655.472656 297.828125 L 652.113281 297.828125 L 652.113281 299.507812 L 655.472656 299.507812 Z M 644.394531 189.53125 L 641.03125 189.53125 L 641.03125 191.210938 L 644.394531 191.210938 Z M 637.671875 189.53125 L 634.3125 189.53125 L 634.3125 191.210938 L 637.671875 191.210938 Z M 642.03125 297.828125 L 638.671875 297.828125 L 638.671875 299.507812 L 642.03125 299.507812 Z M 645.390625 299.507812 L 648.75 299.507812 L 648.75 297.828125 L 645.390625 297.828125 Z M 675.632812 297.828125 L 672.273438 297.828125 L 672.273438 299.507812 L 675.632812 299.507812 Z M 683.191406 296.855469 L 681.511719 296.855469 L 681.511719 297.828125 L 678.992188 297.828125 L 678.992188 299.507812 L 683.191406 299.507812 Z M 671.273438 189.53125 L 667.914062 189.53125 L 667.914062 191.210938 L 671.273438 191.210938 Z M 662.191406 297.828125 L 658.832031 297.828125 L 658.832031 299.507812 L 662.191406 299.507812 Z M 668.914062 297.828125 L 665.550781 297.828125 L 665.550781 299.507812 L 668.914062 299.507812 Z M 664.554688 189.53125 L 661.195312 189.53125 L 661.195312 191.210938 L 664.554688 191.210938 Z M 609.636719 244.519531 C 612.386719 244.519531 614.609375 242.292969 614.609375 239.550781 C 614.609375 238.628906 614.339844 237.78125 613.910156 237.039062 C 613.929688 237.15625 613.980469 237.261719 613.980469 237.378906 C 613.980469 238.574219 613.007812 239.550781 611.808594 239.550781 C 610.613281 239.550781 609.636719 238.574219 609.636719 237.378906 C 609.636719 236.1875 610.613281 235.210938 611.808594 235.210938 C 611.933594 235.210938 612.03125 235.261719 612.148438 235.28125 C 611.40625 234.847656 610.5625 234.578125 609.636719 234.578125 C 606.894531 234.578125 604.667969 236.804688 604.667969 239.550781 C 604.667969 242.292969 606.894531 244.519531 609.636719 244.519531 Z M 641.648438 239.550781 C 641.648438 242.292969 643.875 244.519531 646.625 244.519531 C 649.367188 244.519531 651.59375 242.292969 651.59375 239.550781 C 651.59375 238.628906 651.332031 237.78125 650.890625 237.039062 C 650.910156 237.15625 650.960938 237.261719 650.960938 237.378906 C 650.960938 238.574219 649.992188 239.550781 648.789062 239.550781 C 647.597656 239.550781 646.625 238.574219 646.625 237.378906 C 646.625 236.1875 647.597656 235.210938 648.789062 235.210938 C 648.914062 235.210938 649.019531 235.261719 649.132812 235.28125 C 648.398438 234.847656 647.542969 234.578125 646.625 234.578125 C 643.875 234.578125 641.648438 236.804688 641.648438 239.550781 Z M 739.078125 339.386719 L 702.335938 339.386719 L 702.335938 376.105469 L 739.078125 376.105469 Z M 690.242188 339.386719 L 653.503906 339.386719 L 653.503906 376.105469 L 690.242188 376.105469 Z M 641.40625 339.386719 L 604.667969 339.386719 L 604.667969 376.105469 L 641.40625 376.105469 Z M 592.574219 339.386719 L 555.832031 339.386719 L 555.832031 376.105469 L 592.574219 376.105469 Z M 750.015625 331.519531 L 750.015625 383.972656 C 750.015625 387.355469 747.273438 390.089844 743.894531 390.089844 L 549.347656 390.089844 C 545.96875 390.089844 543.226562 387.355469 543.226562 383.972656 L 543.226562 331.519531 C 543.226562 328.136719 545.96875 325.402344 549.347656 325.402344 L 743.894531 325.402344 C 747.273438 325.402344 750.015625 328.136719 750.015625 331.519531 Z M 443.679688 356.253906 L 434.464844 346.898438 L 425.828125 355.394531 L 435.042969 364.75 Z M 464.890625 262.960938 L 462.1875 287.441406 L 470.074219 279.617188 L 481.007812 281.589844 Z M 422.023438 401.511719 L 445.8125 401.511719 L 445.8125 379.988281 L 422.023438 379.988281 Z M 423.289062 363.796875 L 426.589844 367.15625 C 427.84375 368.421875 429.882812 368.4375 431.152344 367.191406 L 433.152344 365.222656 L 434.03125 366.113281 C 434.308594 366.394531 434.675781 366.539062 435.035156 366.539062 C 435.398438 366.539062 435.757812 366.402344 436.035156 366.132812 L 445.042969 357.265625 C 445.601562 356.71875 445.609375 355.820312 445.0625 355.261719 L 435.476562 345.527344 C 435.199219 345.246094 434.839844 345.109375 434.472656 345.109375 C 434.109375 345.109375 433.757812 345.238281 433.480469 345.515625 L 424.464844 354.378906 C 423.90625 354.929688 423.898438 355.820312 424.449219 356.378906 L 425.324219 357.277344 L 423.328125 359.238281 C 422.054688 360.492188 422.042969 362.53125 423.289062 363.796875 Z M 442.269531 317.855469 L 444.691406 315.433594 L 441.351562 312.101562 L 438.015625 308.769531 L 435.601562 311.191406 Z M 432.503906 322.027344 L 424.226562 330.300781 L 437.925781 326.417969 L 441.144531 318.8125 L 434.636719 312.304688 L 427.035156 315.535156 L 423.144531 329.226562 L 431.421875 320.953125 Z M 422.863281 289.710938 L 432.121094 280.519531 L 444.972656 282.835938 L 426.039062 260.953125 Z M 459.996094 291.980469 L 470.640625 281.425781 L 485.394531 284.089844 L 463.652344 258.949219 Z M 483.203125 348.269531 L 474.359375 358.195312 L 483.203125 368.113281 Z M 482.578125 386.59375 L 475.796875 379.816406 L 473.890625 381.71875 L 480.675781 388.496094 Z M 479.636719 389.332031 L 473.054688 382.757812 L 461.378906 394.429688 L 460.796875 401.59375 L 467.960938 401 Z M 461.089844 348.269531 L 461.089844 368.113281 L 469.929688 358.195312 Z M 477.65625 314.765625 L 480.9375 318.046875 L 483.320312 315.664062 L 476.75 309.097656 L 474.367188 311.480469 Z M 476.625 315.789062 L 473.421875 312.582031 L 465.933594 315.757812 L 463.027344 326.003906 L 462.398438 328.214844 L 462.109375 329.238281 L 462.726562 328.613281 L 463.914062 327.433594 L 470.253906 321.089844 L 471.324219 322.160156 L 463.171875 330.300781 L 476.660156 326.476562 L 479.835938 318.992188 Z M 472.988281 349.949219 L 472.988281 348.269531 L 471.308594 348.269531 L 471.308594 349.949219 Z M 472.988281 356.542969 L 472.988281 353.242188 L 471.308594 353.242188 L 471.308594 356.542969 Z M 471.308594 366.433594 L 471.308594 368.113281 L 472.988281 368.113281 L 472.988281 366.433594 Z M 472.988281 363.140625 L 472.988281 359.84375 L 471.308594 359.84375 L 471.308594 363.140625 Z M 460.160156 321.804688 C 460.382812 324.316406 461.15625 326.136719 461.792969 327.261719 L 462.507812 324.75 C 462.207031 323.90625 461.945312 322.882812 461.832031 321.660156 C 461.667969 319.757812 462.707031 317.914062 463.714844 316.136719 C 464.726562 314.351562 465.679688 312.671875 465.332031 311 C 464.660156 307.734375 461.453125 306.394531 461.3125 306.335938 C 460.886719 306.160156 460.394531 306.367188 460.226562 306.796875 C 460.046875 307.222656 460.25 307.714844 460.675781 307.890625 C 460.703125 307.902344 463.199219 308.960938 463.683594 311.339844 C 463.90625 312.390625 463.105469 313.808594 462.253906 315.3125 C 461.167969 317.21875 459.949219 319.382812 460.160156 321.804688 Z M 412.066406 409.253906 L 412.066406 256.308594 C 412.066406 252.585938 415.085938 249.5625 418.804688 249.5625 L 486.464844 249.5625 C 490.191406 249.5625 493.210938 252.585938 493.210938 256.308594 L 493.210938 409.253906 C 493.210938 412.980469 490.191406 416 486.464844 416 L 418.804688 416 C 415.085938 416 412.066406 412.980469 412.066406 409.253906 Z M 462.769531 352.679688 L 462.769531 363.707031 L 467.679688 358.195312 Z M 463.007812 395.175781 L 462.632812 399.753906 L 467.214844 399.382812 L 468.574219 398.023438 L 464.367188 393.816406 Z M 423.703125 399.832031 L 444.132812 399.832031 L 444.132812 381.667969 L 423.703125 381.667969 Z M 609.753906 528.59375 C 609.5625 528.664062 609.425781 528.789062 609.289062 528.914062 C 609.171875 529.058594 609.058594 529.203125 608.992188 529.398438 C 608.921875 529.589844 608.863281 529.785156 608.875 530.0625 C 608.886719 530.304688 609.078125 530.5 609.328125 530.515625 C 609.601562 530.535156 609.808594 530.476562 609.996094 530.402344 C 610.195312 530.335938 610.332031 530.21875 610.476562 530.101562 C 610.609375 529.96875 610.730469 529.832031 610.804688 529.640625 C 610.882812 529.457031 610.949219 529.261719 610.9375 528.992188 C 610.921875 528.703125 610.691406 528.46875 610.398438 528.453125 C 610.128906 528.441406 609.929688 528.515625 609.753906 528.59375 Z M 619.65625 530.074219 C 619.179688 530.402344 618.773438 530.816406 618.402344 531.261719 C 618.050781 531.714844 617.726562 532.199219 617.511719 532.738281 C 617.289062 533.269531 617.117188 533.828125 617.085938 534.417969 C 617.085938 534.511719 617.125 534.613281 617.195312 534.679688 C 617.335938 534.8125 617.550781 534.804688 617.675781 534.667969 C 618.070312 534.265625 618.390625 533.867188 618.726562 533.472656 L 619.695312 532.324219 L 620.660156 531.171875 C 620.984375 530.777344 621.316406 530.390625 621.632812 529.9375 L 621.644531 529.925781 C 621.707031 529.832031 621.730469 529.714844 621.699219 529.597656 C 621.644531 529.378906 621.421875 529.25 621.207031 529.308594 C 620.636719 529.457031 620.128906 529.742188 619.65625 530.074219 Z M 631.554688 547.125 C 631.878906 547.21875 632.191406 547.238281 632.507812 547.25 C 632.828125 547.25 633.144531 547.238281 633.460938 547.160156 C 633.78125 547.078125 634.097656 546.996094 634.417969 546.792969 C 634.46875 546.757812 634.515625 546.710938 634.554688 546.652344 C 634.6875 546.445312 634.628906 546.167969 634.417969 546.035156 C 634.097656 545.832031 633.78125 545.746094 633.460938 545.667969 C 633.144531 545.589844 632.828125 545.578125 632.507812 545.578125 C 632.191406 545.589844 631.878906 545.609375 631.554688 545.703125 C 631.242188 545.789062 630.925781 545.886719 630.605469 546.09375 C 630.566406 546.121094 630.519531 546.160156 630.492188 546.207031 C 630.375 546.382812 630.425781 546.621094 630.605469 546.730469 C 630.925781 546.941406 631.242188 547.039062 631.554688 547.125 Z M 632.226562 582.261719 C 633.355469 581.3125 634.304688 580.15625 635.113281 578.910156 C 635.941406 577.664062 636.570312 576.300781 637.054688 574.890625 C 637.054688 574.882812 637.054688 574.875 637.0625 574.871094 C 637.390625 574.871094 637.726562 574.835938 638.054688 574.777344 C 638.675781 574.664062 639.273438 574.421875 639.832031 574.101562 C 640.382812 573.773438 640.902344 573.367188 641.296875 572.84375 C 641.6875 572.332031 642.011719 571.738281 642.101562 571.089844 C 642.117188 571 642.089844 570.894531 642.019531 570.820312 C 641.894531 570.675781 641.683594 570.671875 641.546875 570.796875 L 641.53125 570.808594 C 641.105469 571.195312 640.71875 571.535156 640.296875 571.832031 C 639.863281 572.128906 639.453125 572.410156 639 572.652344 C 638.558594 572.90625 638.085938 573.125 637.613281 573.355469 C 637.5625 573.378906 637.503906 573.398438 637.449219 573.425781 C 637.6875 572.46875 637.875 571.496094 637.941406 570.511719 C 638.054688 569.03125 637.996094 567.535156 637.667969 566.089844 C 637.628906 565.925781 637.488281 565.804688 637.3125 565.789062 C 637.101562 565.777344 636.917969 565.945312 636.910156 566.15625 C 636.832031 567.574219 636.707031 568.964844 636.464844 570.335938 C 636.214844 571.699219 635.902344 573.050781 635.460938 574.359375 C 635.042969 575.675781 634.488281 576.949219 633.886719 578.203125 C 633.261719 579.449219 632.535156 580.648438 631.746094 581.835938 C 631.667969 581.953125 631.675781 582.113281 631.765625 582.222656 C 631.882812 582.359375 632.089844 582.378906 632.226562 582.261719 Z M 646.285156 554.710938 C 646.382812 554.855469 646.570312 554.917969 646.742188 554.855469 C 646.941406 554.773438 647.039062 554.558594 646.960938 554.363281 C 646.308594 552.664062 645.496094 551.042969 644.609375 549.453125 C 643.730469 547.867188 642.734375 546.351562 641.675781 544.875 C 640.601562 543.414062 639.472656 541.980469 638.238281 540.65625 C 637.011719 539.320312 635.722656 538.046875 634.320312 536.890625 C 634.199219 536.800781 634.035156 536.792969 633.914062 536.886719 C 633.773438 536.996094 633.75 537.199219 633.851562 537.335938 L 637.148438 541.570312 C 638.21875 542.992188 639.292969 544.402344 640.3125 545.851562 C 641.355469 547.289062 642.347656 548.765625 643.34375 550.234375 Z M 288.199219 729.167969 C 286.65625 726.578125 285.160156 723.964844 283.578125 721.394531 C 282.003906 718.820312 280.414062 716.261719 278.734375 713.75 C 278.648438 713.621094 278.472656 713.566406 278.328125 713.640625 C 278.164062 713.71875 278.097656 713.910156 278.175781 714.066406 C 279.5 716.78125 280.917969 719.445312 282.351562 722.101562 C 283.773438 724.757812 285.285156 727.371094 286.746094 730 C 288.277344 732.597656 289.773438 735.214844 291.335938 737.792969 C 292.902344 740.367188 294.484375 742.9375 296.160156 745.449219 C 296.261719 745.609375 296.472656 745.667969 296.644531 745.582031 C 296.835938 745.484375 296.914062 745.261719 296.820312 745.070312 C 295.488281 742.359375 294.066406 739.703125 292.628906 737.054688 C 291.183594 734.402344 289.675781 731.792969 288.199219 729.167969 Z M 488.957031 652.484375 C 489.035156 652.660156 489.234375 652.757812 489.421875 652.699219 C 489.625 652.640625 489.738281 652.433594 489.671875 652.226562 C 488.589844 648.691406 486.429688 645.453125 483.535156 643.058594 C 480.660156 640.617188 477.066406 639.101562 473.363281 638.476562 C 473.152344 638.445312 472.929688 638.492188 472.738281 638.628906 C 472.378906 638.898438 472.300781 639.417969 472.570312 639.777344 L 472.574219 639.789062 C 475.265625 643.429688 477.5625 647.378906 479.265625 651.597656 C 481.023438 655.789062 482.222656 660.210938 482.9375 664.730469 C 482.964844 664.894531 483.109375 665.015625 483.273438 665.007812 C 483.449219 664.996094 483.589844 664.84375 483.574219 664.667969 C 483.304688 660.027344 482.269531 655.4375 480.640625 651.054688 C 479.21875 647.359375 477.375 643.8125 475.117188 640.542969 C 477.832031 641.238281 480.40625 642.464844 482.644531 644.164062 C 485.414062 646.296875 487.597656 649.199219 488.957031 652.484375 Z M 259.679688 395.535156 C 256.125 394.074219 252.554688 392.625 248.953125 391.277344 C 248.800781 391.21875 248.625 391.285156 248.550781 391.429688 C 248.472656 391.59375 248.539062 391.785156 248.695312 391.863281 C 252.132812 393.59375 255.621094 395.222656 259.109375 396.835938 C 262.601562 398.457031 266.125 399.992188 269.636719 401.570312 L 280.25 406.105469 C 283.808594 407.574219 287.363281 409.03125 290.972656 410.394531 C 291.152344 410.460938 291.355469 410.382812 291.445312 410.207031 C 291.539062 410.015625 291.464844 409.792969 291.277344 409.695312 C 287.828125 407.976562 284.339844 406.355469 280.847656 404.746094 L 270.308594 400.035156 C 266.761719 398.542969 263.238281 397 259.679688 395.535156 Z M 335.160156 290.402344 C 336.429688 289.671875 337.636719 288.886719 338.875 288.234375 C 340.125 287.59375 341.382812 287.050781 342.703125 286.785156 C 344.007812 286.496094 345.335938 286.496094 346.59375 286.824219 C 347.859375 287.167969 349.042969 287.867188 350.046875 288.820312 C 350.171875 288.933594 350.363281 288.964844 350.511719 288.871094 C 350.695312 288.769531 350.753906 288.53125 350.644531 288.347656 C 349.855469 287.015625 348.558594 285.984375 347.058594 285.414062 C 345.550781 284.824219 343.871094 284.8125 342.347656 285.144531 C 340.8125 285.492188 339.386719 286.164062 338.148438 287.015625 C 336.902344 287.867188 335.785156 288.839844 334.769531 289.894531 C 334.667969 289.996094 334.644531 290.152344 334.714844 290.277344 C 334.808594 290.433594 335.003906 290.488281 335.160156 290.402344 Z M 286.925781 287.875 C 288.628906 286.824219 290.316406 285.796875 292.078125 284.949219 C 293.839844 284.117188 295.652344 283.421875 297.523438 283.066406 C 299.375 282.6875 301.304688 282.667969 303.160156 282.988281 C 305.019531 283.324219 306.804688 284.070312 308.332031 285.25 C 308.46875 285.363281 308.671875 285.363281 308.816406 285.246094 C 308.976562 285.105469 308.996094 284.863281 308.859375 284.707031 C 307.484375 283.105469 305.523438 282.054688 303.484375 281.539062 C 301.421875 281.007812 299.261719 281.007812 297.1875 281.421875 C 295.128906 281.851562 293.179688 282.648438 291.414062 283.703125 C 289.636719 284.738281 288.007812 285.980469 286.535156 287.363281 C 286.425781 287.460938 286.398438 287.632812 286.476562 287.765625 C 286.570312 287.914062 286.773438 287.96875 286.925781 287.875 Z M 259.984375 359.730469 C 262.917969 362.09375 266.125 364.058594 269.421875 365.804688 C 272.734375 367.511719 276.128906 369.019531 279.546875 370.429688 L 279.585938 370.445312 C 279.785156 370.527344 280.011719 370.457031 280.125 370.273438 C 280.257812 370.070312 280.199219 369.792969 279.988281 369.667969 L 278.949219 369.011719 C 278.863281 368.953125 278.761719 368.949219 278.660156 368.972656 C 275.792969 367.492188 272.925781 366.046875 270.148438 364.460938 C 266.945312 362.683594 263.855469 360.714844 261.027344 358.429688 C 258.179688 356.1875 255.664062 353.539062 253.578125 350.585938 C 251.496094 347.632812 249.929688 344.308594 249.136719 340.738281 C 249.101562 340.582031 248.953125 340.46875 248.789062 340.488281 C 248.609375 340.507812 248.484375 340.667969 248.503906 340.84375 C 248.917969 344.589844 250.375 348.191406 252.410156 351.367188 C 254.4375 354.566406 257.082031 357.324219 259.984375 359.730469 Z M 306.910156 351.601562 C 307.78125 351.859375 308.671875 352.0625 309.585938 352.140625 C 310.492188 352.230469 311.402344 352.257812 312.308594 352.121094 C 312.453125 352.09375 312.585938 351.996094 312.625 351.84375 C 312.691406 351.640625 312.570312 351.417969 312.363281 351.359375 C 311.515625 351.105469 310.675781 350.90625 309.847656 350.683594 L 307.386719 349.996094 L 304.933594 349.253906 C 304.113281 348.996094 303.296875 348.714844 302.4375 348.472656 C 302.320312 348.441406 302.191406 348.472656 302.105469 348.566406 C 301.980469 348.703125 301.992188 348.914062 302.125 349.03125 C 302.804688 349.648438 303.582031 350.132812 304.382812 350.566406 C 305.183594 351.003906 306.035156 351.328125 306.910156 351.601562 Z M 294.28125 336.199219 C 294.164062 336.101562 293.984375 336.09375 293.859375 336.207031 C 293.730469 336.324219 293.71875 336.527344 293.835938 336.65625 C 295.660156 338.703125 297.878906 340.398438 300.285156 341.742188 C 302.703125 343.101562 305.359375 343.984375 308.0625 344.570312 C 310.785156 345.074219 313.589844 345.246094 316.339844 344.890625 C 317.027344 344.792969 317.71875 344.699219 318.386719 344.542969 C 319.0625 344.414062 319.753906 344.269531 320.429688 344.023438 C 321.722656 343.546875 323.21875 342.695312 323.65625 341.152344 C 323.710938 340.972656 323.625 340.777344 323.453125 340.699219 C 323.261719 340.613281 323.035156 340.691406 322.949219 340.882812 L 322.941406 340.894531 C 322.441406 341.972656 321.273438 342.550781 320.058594 342.851562 C 318.839844 343.164062 317.496094 343.324219 316.203125 343.410156 C 313.589844 343.605469 310.949219 343.453125 308.386719 342.921875 C 303.21875 341.992188 298.390625 339.582031 294.28125 336.199219 Z M 322.207031 330.929688 C 325.226562 330.96875 328.5 330.925781 331.402344 329.246094 C 332.824219 328.445312 334.074219 327.191406 334.773438 325.609375 C 335.484375 324.003906 335.46875 322.25 335.265625 320.683594 C 334.734375 317.582031 334.007812 314.628906 333.066406 311.675781 C 332.125 308.742188 331 305.875 329.621094 303.128906 C 329.539062 302.957031 329.332031 302.871094 329.148438 302.9375 C 328.953125 303.011719 328.847656 303.226562 328.921875 303.421875 C 329.917969 306.296875 330.855469 309.175781 331.644531 312.097656 C 332.425781 315.003906 333.160156 317.988281 333.605469 320.914062 C 333.824219 322.34375 333.835938 323.765625 333.332031 324.992188 C 332.824219 326.226562 331.820312 327.25 330.652344 328.039062 C 328.277344 329.625 325.179688 329.933594 322.171875 330.289062 C 322.015625 330.308594 321.890625 330.445312 321.890625 330.609375 C 321.890625 330.785156 322.03125 330.929688 322.207031 330.929688 Z M 121.367188 484.941406 C 121.191406 484.90625 121.027344 485.019531 120.992188 485.195312 L 116.636719 508.078125 L 112.421875 530.988281 L 104.015625 576.804688 L 97.808594 612.007812 C 96.066406 613.59375 94.386719 615.234375 92.722656 616.886719 C 90.894531 618.707031 89.125 620.574219 87.328125 622.417969 C 85.585938 624.3125 83.808594 626.183594 82.101562 628.105469 C 80.382812 630.027344 78.683594 631.964844 77.054688 633.972656 C 76.964844 634.09375 76.964844 634.265625 77.070312 634.390625 C 77.1875 634.523438 77.390625 634.535156 77.519531 634.410156 C 79.445312 632.691406 81.292969 630.894531 83.125 629.082031 C 84.964844 627.28125 86.734375 625.410156 88.546875 623.574219 C 90.300781 621.691406 92.078125 619.828125 93.796875 617.910156 C 95.058594 616.507812 96.296875 615.089844 97.519531 613.648438 L 95.921875 622.679688 L 91.886719 645.621094 L 89.417969 660.167969 L 86.242188 660.167969 C 86.886719 662.457031 87.582031 664.699219 88.277344 666.941406 L 87.996094 668.589844 C 87.960938 668.792969 88.101562 668.988281 88.304688 669.027344 C 88.507812 669.0625 88.703125 668.929688 88.742188 668.722656 L 93.09375 645.839844 L 97.289062 622.929688 L 105.664062 577.101562 L 113.722656 531.21875 L 117.746094 508.277344 L 121.625 485.308594 C 121.648438 485.136719 121.539062 484.972656 121.367188 484.941406 Z M 406.960938 706.382812 C 407.089844 706.265625 407.109375 706.0625 406.992188 705.929688 L 377.933594 671.582031 L 348.988281 637.140625 C 329.785156 614.101562 310.695312 590.960938 292.3125 567.285156 C 289.984375 564.347656 287.769531 561.335938 285.492188 558.355469 C 283.203125 555.390625 281.023438 552.355469 278.863281 549.304688 C 276.613281 546.300781 274.710938 543.125 272.734375 539.980469 C 270.945312 536.800781 269.917969 533.230469 269.261719 529.609375 C 268.894531 527.804688 268.765625 525.949219 268.566406 524.113281 C 268.507812 522.261719 268.359375 520.410156 268.4375 518.554688 C 268.4375 514.84375 268.824219 511.136719 269.296875 507.449219 C 270.371094 500.082031 272.214844 492.824219 274.699219 485.792969 C 279.730469 471.785156 287.304688 458.5625 297.609375 447.777344 C 302.765625 442.417969 308.671875 437.753906 315.203125 434.175781 C 321.722656 430.601562 328.886719 428.167969 336.269531 427.132812 C 336.472656 427.105469 336.625 426.914062 336.597656 426.703125 C 336.574219 426.496094 336.382812 426.351562 336.171875 426.375 C 328.683594 427.347656 321.386719 429.742188 314.730469 433.304688 C 308.0625 436.867188 302.011719 441.539062 296.722656 446.921875 C 286.230469 457.820312 278.535156 471.175781 273.398438 485.335938 C 270.863281 492.433594 268.976562 499.765625 267.851562 507.238281 C 267.355469 510.984375 266.953125 514.75 266.941406 518.535156 C 266.855469 520.433594 267 522.320312 267.050781 524.21875 C 267.25 526.105469 267.378906 528.003906 267.753906 529.878906 C 268.417969 533.617188 269.472656 537.355469 271.355469 540.742188 C 273.359375 543.949219 275.308594 547.21875 277.546875 550.222656 C 279.703125 553.304688 281.890625 556.367188 284.175781 559.339844 C 286.445312 562.332031 288.648438 565.375 290.992188 568.308594 C 309.496094 591.945312 328.683594 615.019531 347.980469 637.984375 L 377.074219 672.316406 L 406.507812 706.351562 C 406.625 706.480469 406.828125 706.496094 406.960938 706.382812 Z M 335.179688 302.132812 C 337.097656 302.132812 338.648438 300.582031 338.648438 298.667969 C 338.648438 296.757812 337.097656 295.210938 335.179688 295.210938 C 333.273438 295.210938 331.722656 296.757812 331.722656 298.667969 C 331.722656 300.582031 333.273438 302.132812 335.179688 302.132812 Z M 298.046875 298.667969 C 298.046875 296.757812 296.5 295.210938 294.582031 295.210938 C 292.671875 295.210938 291.125 296.757812 291.125 298.667969 C 291.125 300.582031 292.671875 302.132812 294.582031 302.132812 C 296.5 302.132812 298.046875 300.582031 298.046875 298.667969 Z M 633.550781 530.429688 L 614.511719 484.257812 C 613.804688 482.46875 612.136719 481.363281 610.339844 481.265625 L 611.90625 484.902344 C 612.371094 485.976562 611.878906 487.230469 610.804688 487.695312 C 609.722656 488.160156 608.46875 487.667969 608.003906 486.585938 L 606.433594 482.960938 C 605.277344 484.335938 604.929688 486.304688 605.757812 488.050781 L 623.773438 527.765625 C 628.039062 528.289062 631.839844 529.144531 633.550781 530.429688 Z M 651.605469 585.292969 L 653.117188 584.566406 C 652.589844 583.46875 651.867188 582.339844 651.007812 581.191406 C 651.585938 581.050781 652.078125 580.558594 652.117188 579.863281 L 652.347656 575.191406 C 652.460938 572.882812 651.960938 570.59375 650.898438 568.539062 L 649.480469 565.789062 C 649.136719 567.566406 648.296875 569.363281 646.625 571.042969 C 645.835938 571.832031 644.746094 572.769531 643.449219 573.820312 C 643.046875 574.148438 642.628906 574.476562 642.1875 574.816406 C 646.742188 578.40625 650.003906 581.988281 651.605469 585.292969 Z M 590.886719 553.011719 C 591.167969 552.464844 591.457031 551.921875 591.746094 551.363281 C 580.449219 549.007812 568.28125 547.773438 555.800781 548.261719 C 521.246094 549.613281 520.152344 547.585938 511.605469 531.808594 C 508.910156 526.835938 505.554688 520.640625 500.253906 512.800781 C 477.753906 479.515625 423.417969 497.542969 422.875 497.726562 L 423.414062 499.320312 C 423.953125 499.136719 477.070312 481.503906 498.859375 513.742188 C 504.117188 521.515625 507.445312 527.667969 510.128906 532.609375 C 518.917969 548.835938 520.269531 551.332031 555.867188 549.941406 C 567.855469 549.46875 579.75 550.6875 590.886719 553.011719 Z M 665.609375 806.390625 L 663.929688 806.390625 L 663.929688 812.609375 L 709.640625 812.609375 C 709.804688 812.042969 709.976562 811.488281 710.132812 810.929688 L 665.609375 810.929688 Z M 665.609375 796.3125 L 663.929688 796.3125 L 663.929688 802.53125 L 710.46875 802.53125 L 710.46875 800.851562 L 665.609375 800.851562 Z M 665.609375 786.234375 L 663.929688 786.234375 L 663.929688 792.453125 L 710.46875 792.453125 L 710.46875 790.777344 L 665.609375 790.777344 Z M 665.609375 776.160156 L 663.929688 776.160156 L 663.929688 782.378906 L 710.46875 782.378906 L 710.46875 780.699219 L 665.609375 780.699219 Z M 565.585938 918.414062 L 565.585938 920.09375 L 635.492188 920.09375 C 636.347656 919.566406 637.175781 919.023438 638.015625 918.484375 C 638.054688 918.457031 638.09375 918.433594 638.132812 918.414062 Z M 633.519531 776.160156 L 567.5625 776.160156 L 567.5625 792.285156 L 633.519531 792.285156 Z M 591.195312 844.011719 C 591.195312 849.167969 595.375 853.355469 600.539062 853.355469 C 605.699219 853.355469 609.886719 849.167969 609.886719 844.011719 C 609.886719 838.847656 605.699219 834.671875 600.539062 834.671875 C 595.375 834.671875 591.195312 838.847656 591.195312 844.011719 Z M 565.585938 765.917969 L 565.585938 767.597656 L 639.515625 767.597656 L 639.515625 913.035156 L 565.585938 913.035156 L 565.585938 914.710938 L 639.515625 914.710938 L 639.515625 917.527344 C 640.082031 917.152344 640.632812 916.757812 641.195312 916.371094 L 641.195312 765.917969 Z M 466.664062 785.972656 C 430.207031 769.585938 308.226562 794.296875 308.226562 794.296875 C 308.070312 794.179688 307.90625 794.0625 307.75 793.945312 C 261.238281 803.175781 221.433594 826.128906 171.8125 799.808594 C 218.007812 843.179688 278.464844 876.28125 348.898438 902.878906 C 381.089844 900.449219 406.152344 898.1875 406.152344 898.1875 C 406.152344 898.1875 406.578125 909.640625 408.339844 923.097656 C 448.1875 935.054688 483.121094 941.761719 513.757812 943.984375 C 509.605469 903.882812 496.050781 799.1875 466.664062 785.972656 Z M 326.117188 645.050781 C 321.167969 655.890625 316.53125 668.027344 312.414062 680.429688 L 383.714844 680.429688 C 372.726562 668.070312 362.121094 655.3125 353.820312 645.050781 Z M 702.863281 603.269531 L 687.945312 623.015625 L 692.878906 660.167969 L 638.585938 660.167969 L 725.019531 544.710938 C 724.722656 535.519531 724.453125 526.5 724.25 517.710938 L 628.917969 645.050781 L 585.628906 645.050781 C 573.554688 656.203125 559.285156 668.65625 544.09375 680.429688 L 638.015625 680.429688 L 638.015625 754.214844 L 646.570312 754.214844 L 646.570312 912.535156 C 647.136719 912.109375 647.695312 911.667969 648.253906 911.234375 L 648.253906 754.214844 L 657.261719 754.214844 L 657.261719 680.429688 L 727.097656 680.429688 C 727.277344 673.6875 727.394531 666.929688 727.453125 660.167969 L 711.472656 660.167969 Z M 383.1875 473.972656 C 379.277344 467.988281 375.425781 462.347656 371.683594 457.175781 L 722.75 457.175781 C 723.15625 462.679688 723.445312 468.277344 723.621094 473.972656 L 383.1875 473.972656 " fill-opacity="1" fill-rule="nonzero"/></svg>